<svg id="visual" viewBox="0 0 900 675" width="900" height="675" xmlns="http://www.w3.org/2000/svg" xmlns:xlink="http://www.w3.org/1999/xlink" version="1.1"><path d="M0 258L56 258L56 298L113 298L113 163L169 163L169 156L225 156L225 264L281 264L281 170L338 170L338 183L394 183L394 332L450 332L450 345L506 345L506 150L563 150L563 197L619 197L619 143L675 143L675 204L731 204L731 271L788 271L788 231L844 231L844 264L900 264L900 217L900 0L900 0L844 0L844 0L788 0L788 0L731 0L731 0L675 0L675 0L619 0L619 0L563 0L563 0L506 0L506 0L450 0L450 0L394 0L394 0L338 0L338 0L281 0L281 0L225 0L225 0L169 0L169 0L113 0L113 0L56 0L56 0L0 0Z" fill="#fa7268"></path><path d="M0 575L56 575L56 568L113 568L113 453L169 453L169 501L225 501L225 473L281 473L281 501L338 501L338 568L394 568L394 487L450 487L450 528L506 528L506 487L563 487L563 521L619 521L619 460L675 460L675 494L731 494L731 507L788 507L788 501L844 501L844 501L900 501L900 467L900 215L900 262L844 262L844 229L788 229L788 269L731 269L731 202L675 202L675 141L619 141L619 195L563 195L563 148L506 148L506 343L450 343L450 330L394 330L394 181L338 181L338 168L281 168L281 262L225 262L225 154L169 154L169 161L113 161L113 296L56 296L56 256L0 256Z" fill="#d84a64"></path><path d="M0 676L56 676L56 676L113 676L113 676L169 676L169 676L225 676L225 676L281 676L281 676L338 676L338 676L394 676L394 676L450 676L450 676L506 676L506 676L563 676L563 676L619 676L619 676L675 676L675 676L731 676L731 676L788 676L788 676L844 676L844 676L900 676L900 676L900 465L900 499L844 499L844 499L788 499L788 505L731 505L731 492L675 492L675 458L619 458L619 519L563 519L563 485L506 485L506 526L450 526L450 485L394 485L394 566L338 566L338 499L281 499L281 471L225 471L225 499L169 499L169 451L113 451L113 566L56 566L56 573L0 573Z" fill="#b0235f"></path></svg>